<svg width="126" height="125" viewBox="0 0 126 125" fill="none" xmlns="http://www.w3.org/2000/svg">
<path d="M92.0163 68.9462C95.8576 52.8923 85.9575 36.7641 69.9036 32.9227C53.8498 29.0814 37.7216 38.9815 33.8802 55.0354C30.0388 71.0892 39.939 87.2174 55.9928 91.0588C72.0467 94.9002 88.1749 85 92.0163 68.9462Z" fill="#FAAF40"/>
<path d="M62.9599 24C60.8799 24 59.1899 22.31 59.1899 20.23V3.84996C59.1899 1.76996 60.8799 0.0799561 62.9599 0.0799561C65.0399 0.0799561 66.7299 1.76996 66.7299 3.84996V20.24C66.7199 22.32 65.0399 24 62.9599 24Z" fill="#FAAF40"/>
<path d="M62.9599 124.74C60.8799 124.74 59.1899 123.05 59.1899 120.97V104.58C59.1899 102.5 60.8799 100.81 62.9599 100.81C65.0399 100.81 66.7299 102.5 66.7299 104.58V120.97C66.7199 123.05 65.0399 124.74 62.9599 124.74Z" fill="#FAAF40"/>
<path d="M121.52 66.1799H105.13C103.05 66.1799 101.36 64.4899 101.36 62.4099C101.36 60.3299 103.05 58.6399 105.13 58.6399H121.52C123.6 58.6399 125.29 60.3299 125.29 62.4099C125.29 64.4899 123.6 66.1799 121.52 66.1799Z" fill="#FAAF40"/>
<path d="M4.39012 66.1799H20.7801C22.8601 66.1799 24.5501 64.4899 24.5501 62.4099C24.5501 60.3299 22.8601 58.6399 20.7801 58.6399H4.39012C2.31012 58.6399 0.620117 60.3299 0.620117 62.4099C0.630117 64.4899 2.31012 66.1799 4.39012 66.1799Z" fill="#FAAF40"/>
<path d="M33.1403 36.3599C32.1803 36.3599 31.2103 35.9899 30.4803 35.2599L18.8803 23.6599C17.4103 22.1899 17.4103 19.7999 18.8803 18.3299C20.3503 16.8599 22.7403 16.8599 24.2103 18.3299L35.8003 29.9299C37.2703 31.3999 37.2703 33.7899 35.8003 35.2599C35.0603 35.9899 34.1003 36.3599 33.1403 36.3599Z" fill="#FAAF40"/>
<path d="M104.37 107.59C103.41 107.59 102.44 107.22 101.71 106.49L90.1103 94.8899C88.6403 93.4199 88.6403 91.0299 90.1103 89.5599C91.5803 88.0899 93.9703 88.0899 95.4403 89.5599L107.03 101.15C108.5 102.62 108.5 105.01 107.03 106.48C106.29 107.22 105.33 107.59 104.37 107.59Z" fill="#FAAF40"/>
<path d="M21.5501 107.59C20.5901 107.59 19.6201 107.22 18.8901 106.49C17.4201 105.02 17.4201 102.63 18.8901 101.16L30.4801 89.5699C31.9501 88.0999 34.3401 88.0999 35.8101 89.5699C37.2801 91.0399 37.2801 93.4299 35.8101 94.8999L24.2201 106.49C23.4701 107.22 22.5101 107.59 21.5501 107.59Z" fill="#FAAF40"/>
<path d="M92.7801 36.3599C91.8201 36.3599 90.8501 35.9899 90.1201 35.2599C88.6501 33.7899 88.6501 31.3999 90.1201 29.9299L101.71 18.3399C103.18 16.8699 105.57 16.8699 107.04 18.3399C108.51 19.8099 108.51 22.1999 107.04 23.6699L95.4501 35.2599C94.7101 35.9899 93.7401 36.3599 92.7801 36.3599Z" fill="#FAAF40"/>
</svg>
