<svg width="165" height="128" viewBox="0 0 165 128" fill="none" xmlns="http://www.w3.org/2000/svg">
<path d="M101.67 37.01C101.66 37.01 101.64 37.01 101.63 37.01C101.64 36.76 101.67 36.51 101.67 36.26C101.67 16.23 85.4302 0 65.4102 0C45.3902 0 29.1602 16.23 29.1602 36.25C29.1602 36.27 29.1602 36.3 29.1602 36.32C13.4502 37.05 0.930176 49.98 0.930176 65.86C0.930176 82.21 14.1902 95.47 30.5402 95.47H101.66C117.81 95.47 130.9 82.38 130.9 66.23C130.9 50.1 117.81 37.01 101.67 37.01Z" fill="#82D2EC"/>
<path d="M134.79 69.11C134.78 69.11 134.76 69.11 134.75 69.11C134.76 68.86 134.79 68.61 134.79 68.36C134.79 48.34 118.56 32.11 98.5401 32.11C78.5201 32.11 62.2901 48.34 62.2901 68.36C62.2901 68.38 62.2901 68.41 62.2901 68.43C46.5801 69.16 34.0601 82.09 34.0601 97.97C34.0601 114.32 47.3201 127.58 63.6701 127.58H134.79C150.94 127.58 164.03 114.49 164.03 98.34C164.03 82.2 150.94 69.11 134.79 69.11Z" fill="#42BFEC"/>
</svg>
