<svg width="131" height="135" viewBox="0 0 131 135" fill="none" xmlns="http://www.w3.org/2000/svg">
<path d="M101.36 37.75C101.35 37.75 101.33 37.75 101.32 37.75C101.33 37.5 101.36 37.25 101.36 37C101.36 16.98 85.1299 0.75 65.1099 0.75C45.0899 0.75 28.8599 16.98 28.8599 37C28.8599 37.02 28.8599 37.05 28.8599 37.07C13.1499 37.8 0.629883 50.73 0.629883 66.61C0.629883 82.97 13.8899 96.22 30.2399 96.22H101.36C117.51 96.22 130.6 83.13 130.6 66.98C130.6 50.84 117.51 37.75 101.36 37.75Z" fill="#42BFEC"/>
<path d="M43.5199 101.28L49.3199 111.55L60.8899 113.9L52.9099 122.59L54.2499 134.31L43.5199 129.41L32.7799 134.31L34.1299 122.59L26.1499 113.9L37.7199 111.55L43.5199 101.28Z" fill="#ADE0F3"/>
<path d="M83.6696 64.27L91.2796 77.75L106.45 80.83L95.9896 92.23L97.7496 107.61L83.6696 101.18L69.5896 107.61L71.3496 92.23L60.8896 80.83L76.0596 77.75L83.6696 64.27Z" fill="#ADE0F3"/>
</svg>
