<svg width="176" height="133" viewBox="0 0 176 133" fill="none" xmlns="http://www.w3.org/2000/svg">
<path d="M85.2016 82.2422C95.9862 69.7441 94.5971 50.8699 82.099 40.0854C69.601 29.3008 50.7267 30.6898 39.9422 43.1879C29.1576 55.6859 30.5467 74.5602 43.0448 85.3448C55.5428 96.1293 74.4171 94.7402 85.2016 82.2422Z" fill="#FAAF40"/>
<path d="M62.5801 24.7301C60.5001 24.7301 58.8101 23.0401 58.8101 20.9601V4.58006C58.8101 2.50006 60.5001 0.810059 62.5801 0.810059C64.6601 0.810059 66.35 2.50006 66.35 4.58006V20.9701C66.35 23.0501 64.6601 24.7301 62.5801 24.7301Z" fill="#FAAF40"/>
<path d="M20.41 66.9101H4.01999C1.93999 66.9101 0.25 65.2201 0.25 63.1401C0.25 61.0601 1.93999 59.3701 4.01999 59.3701H20.41C22.49 59.3701 24.18 61.0601 24.18 63.1401C24.17 65.2201 22.49 66.9101 20.41 66.9101Z" fill="#FAAF40"/>
<path d="M32.7602 37.09C31.8002 37.09 30.8302 36.72 30.1002 35.99L18.5102 24.4C17.0402 22.93 17.0402 20.54 18.5102 19.07C19.9802 17.6 22.3702 17.6 23.8402 19.07L35.4302 30.66C36.9002 32.13 36.9002 34.52 35.4302 35.99C34.6902 36.72 33.7202 37.09 32.7602 37.09Z" fill="#FAAF40"/>
<path d="M21.1702 108.32C20.2102 108.32 19.2402 107.95 18.5102 107.22C17.0402 105.75 17.0402 103.36 18.5102 101.89L30.1002 90.3C31.5702 88.83 33.9602 88.83 35.4302 90.3C36.9002 91.77 36.9002 94.16 35.4302 95.63L23.8402 107.22C23.1002 107.95 22.1302 108.32 21.1702 108.32Z" fill="#FAAF40"/>
<path d="M92.4002 37.09C91.4402 37.09 90.4702 36.72 89.7402 35.99C88.2702 34.52 88.2702 32.13 89.7402 30.66L101.33 19.07C102.8 17.6 105.19 17.6 106.66 19.07C108.13 20.54 108.13 22.93 106.66 24.4L95.0702 35.99C94.3302 36.72 93.3602 37.09 92.4002 37.09Z" fill="#FAAF40"/>
<path d="M145.79 74.3501C145.78 74.3501 145.76 74.3501 145.75 74.3501C145.76 74.1001 145.79 73.8501 145.79 73.6001C145.79 53.5801 129.56 37.3501 109.54 37.3501C89.52 37.3501 73.29 53.5801 73.29 73.6001C73.29 73.6201 73.29 73.6501 73.29 73.6701C57.58 74.4001 45.0601 87.3301 45.0601 103.21C45.0601 119.57 58.32 132.82 74.67 132.82H145.79C161.94 132.82 175.03 119.73 175.03 103.58C175.03 87.4401 161.94 74.3501 145.79 74.3501Z" fill="#42BFEC"/>
</svg>
