<svg width="131" height="128" viewBox="0 0 131 128" fill="none" xmlns="http://www.w3.org/2000/svg">
<path d="M100.79 37.66C100.78 37.66 100.76 37.66 100.75 37.66C100.76 37.41 100.79 37.16 100.79 36.91C100.79 16.89 84.5601 0.660034 64.5401 0.660034C44.5201 0.660034 28.2901 16.89 28.2901 36.91C28.2901 36.93 28.2901 36.96 28.2901 36.98C12.5801 37.71 0.0600586 50.64 0.0600586 66.52C0.0600586 82.88 13.3201 96.13 29.6701 96.13H100.79C116.94 96.13 130.03 83.04 130.03 66.89C130.03 50.75 116.94 37.66 100.79 37.66Z" fill="#42BFEC"/>
<path d="M22.3699 79.89C20.9799 79.89 19.8599 78.77 19.8599 77.38V60.66C19.8599 59.27 20.9799 58.15 22.3699 58.15C23.7599 58.15 24.8799 59.27 24.8799 60.66V77.38C24.8899 78.77 23.7599 79.89 22.3699 79.89Z" fill="#ADE0F3"/>
<path d="M22.3699 127.89C20.9799 127.89 19.8599 126.77 19.8599 125.38V91.0601C19.8599 89.6701 20.9799 88.55 22.3699 88.55C23.7599 88.55 24.8799 89.6701 24.8799 91.0601V125.38C24.8899 126.77 23.7599 127.89 22.3699 127.89Z" fill="#ADE0F3"/>
<path d="M43.7097 70.39C42.3197 70.39 41.1997 69.27 41.1997 67.88V43.51C41.1997 42.12 42.3197 41 43.7097 41C45.0997 41 46.2197 42.12 46.2197 43.51V67.88C46.2197 69.27 45.0997 70.39 43.7097 70.39Z" fill="#ADE0F3"/>
<path d="M43.7097 98.39C42.3197 98.39 41.1997 97.27 41.1997 95.88V80C41.1997 78.61 42.3197 77.49 43.7097 77.49C45.0997 77.49 46.2197 78.61 46.2197 80V95.88C46.2197 97.27 45.0997 98.39 43.7097 98.39Z" fill="#ADE0F3"/>
<path d="M43.7097 127.89C42.3197 127.89 41.1997 126.77 41.1997 125.38V112.68C41.1997 111.29 42.3197 110.17 43.7097 110.17C45.0997 110.17 46.2197 111.29 46.2197 112.68V125.38C46.2197 126.77 45.0997 127.89 43.7097 127.89Z" fill="#ADE0F3"/>
<path d="M65.0398 127.89C63.6498 127.89 62.5298 126.77 62.5298 125.38V91.0601C62.5298 89.6701 63.6498 88.55 65.0398 88.55C66.4298 88.55 67.5498 89.6701 67.5498 91.0601V125.38C67.5598 126.77 66.4298 127.89 65.0398 127.89Z" fill="#ADE0F3"/>
<path d="M86.3801 127.89C84.9901 127.89 83.8701 126.77 83.8701 125.38V112.68C83.8701 111.29 84.9901 110.17 86.3801 110.17C87.7701 110.17 88.8901 111.29 88.8901 112.68V125.38C88.8901 126.77 87.7701 127.89 86.3801 127.89Z" fill="#ADE0F3"/>
<path d="M107.71 127.89C106.32 127.89 105.2 126.77 105.2 125.38V99.11C105.2 97.72 106.32 96.6 107.71 96.6C109.1 96.6 110.22 97.72 110.22 99.11V125.38C110.23 126.77 109.1 127.89 107.71 127.89Z" fill="#ADE0F3"/>
<path d="M107.71 84.66C106.32 84.66 105.2 83.54 105.2 82.15V70.25C105.2 68.86 106.32 67.74 107.71 67.74C109.1 67.74 110.22 68.86 110.22 70.25V82.15C110.23 83.54 109.1 84.66 107.71 84.66Z" fill="#ADE0F3"/>
<path d="M86.3801 104.74C84.9901 104.74 83.8701 103.62 83.8701 102.23V51.12C83.8701 49.73 84.9901 48.61 86.3801 48.61C87.7701 48.61 88.8901 49.73 88.8901 51.12V102.23C88.8901 103.61 87.7701 104.74 86.3801 104.74Z" fill="#ADE0F3"/>
<path d="M65.0398 79.06C63.6498 79.06 62.5298 77.94 62.5298 76.55V61.49C62.5298 60.1 63.6498 58.98 65.0398 58.98C66.4298 58.98 67.5498 60.1 67.5498 61.49V76.55C67.5598 77.94 66.4298 79.06 65.0398 79.06Z" fill="#ADE0F3"/>
</svg>
