<svg width="131" height="139" viewBox="0 0 131 139" fill="none" xmlns="http://www.w3.org/2000/svg">
<path d="M101.13 37.7C101.12 37.7 101.1 37.7 101.09 37.7C101.1 37.45 101.13 37.2 101.13 36.95C101.13 16.93 84.9004 0.699951 64.8804 0.699951C44.8604 0.699951 28.6304 16.93 28.6304 36.95C28.6304 36.97 28.6304 37 28.6304 37.02C12.9204 37.75 0.400391 50.6799 0.400391 66.5599C0.400391 82.9099 13.6604 96.1699 30.0104 96.1699H101.13C117.28 96.1699 130.37 83.0799 130.37 66.9299C130.37 50.7899 117.28 37.7 101.13 37.7Z" fill="#42BFEC"/>
<path d="M30.8805 83.4299C34.255 83.4299 36.9905 80.6944 36.9905 77.3199C36.9905 73.9455 34.255 71.21 30.8805 71.21C27.506 71.21 24.7705 73.9455 24.7705 77.3199C24.7705 80.6944 27.506 83.4299 30.8805 83.4299Z" fill="#ADE0F3"/>
<path d="M30.8805 102.28C34.255 102.28 36.9905 99.5444 36.9905 96.1699C36.9905 92.7955 34.255 90.0599 30.8805 90.0599C27.506 90.0599 24.7705 92.7955 24.7705 96.1699C24.7705 99.5444 27.506 102.28 30.8805 102.28Z" fill="#ADE0F3"/>
<path d="M30.8805 120.2C34.255 120.2 36.9905 117.464 36.9905 114.09C36.9905 110.716 34.255 107.98 30.8805 107.98C27.506 107.98 24.7705 110.716 24.7705 114.09C24.7705 117.464 27.506 120.2 30.8805 120.2Z" fill="#ADE0F3"/>
<path d="M30.8805 138.11C34.255 138.11 36.9905 135.374 36.9905 132C36.9905 128.625 34.255 125.89 30.8805 125.89C27.506 125.89 24.7705 128.625 24.7705 132C24.7705 135.374 27.506 138.11 30.8805 138.11Z" fill="#ADE0F3"/>
<path d="M53.8805 83.4299C57.255 83.4299 59.9905 80.6944 59.9905 77.3199C59.9905 73.9455 57.255 71.21 53.8805 71.21C50.506 71.21 47.7705 73.9455 47.7705 77.3199C47.7705 80.6944 50.506 83.4299 53.8805 83.4299Z" fill="#ADE0F3"/>
<path d="M53.8805 102.28C57.255 102.28 59.9905 99.5444 59.9905 96.1699C59.9905 92.7955 57.255 90.0599 53.8805 90.0599C50.506 90.0599 47.7705 92.7955 47.7705 96.1699C47.7705 99.5444 50.506 102.28 53.8805 102.28Z" fill="#ADE0F3"/>
<path d="M53.8805 120.2C57.255 120.2 59.9905 117.464 59.9905 114.09C59.9905 110.716 57.255 107.98 53.8805 107.98C50.506 107.98 47.7705 110.716 47.7705 114.09C47.7705 117.464 50.506 120.2 53.8805 120.2Z" fill="#ADE0F3"/>
<path d="M53.8805 138.11C57.255 138.11 59.9905 135.374 59.9905 132C59.9905 128.625 57.255 125.89 53.8805 125.89C50.506 125.89 47.7705 128.625 47.7705 132C47.7705 135.374 50.506 138.11 53.8805 138.11Z" fill="#ADE0F3"/>
<path d="M76.8903 83.4299C80.2647 83.4299 83.0002 80.6944 83.0002 77.3199C83.0002 73.9455 80.2647 71.21 76.8903 71.21C73.5158 71.21 70.7803 73.9455 70.7803 77.3199C70.7803 80.6944 73.5158 83.4299 76.8903 83.4299Z" fill="#ADE0F3"/>
<path d="M76.8903 102.28C80.2647 102.28 83.0002 99.5444 83.0002 96.1699C83.0002 92.7955 80.2647 90.0599 76.8903 90.0599C73.5158 90.0599 70.7803 92.7955 70.7803 96.1699C70.7803 99.5444 73.5158 102.28 76.8903 102.28Z" fill="#ADE0F3"/>
<path d="M76.8903 120.2C80.2647 120.2 83.0002 117.464 83.0002 114.09C83.0002 110.716 80.2647 107.98 76.8903 107.98C73.5158 107.98 70.7803 110.716 70.7803 114.09C70.7803 117.464 73.5158 120.2 76.8903 120.2Z" fill="#ADE0F3"/>
<path d="M76.8903 138.11C80.2647 138.11 83.0002 135.374 83.0002 132C83.0002 128.625 80.2647 125.89 76.8903 125.89C73.5158 125.89 70.7803 128.625 70.7803 132C70.7803 135.374 73.5158 138.11 76.8903 138.11Z" fill="#ADE0F3"/>
<path d="M99.8903 83.4299C103.265 83.4299 106 80.6944 106 77.3199C106 73.9455 103.265 71.21 99.8903 71.21C96.5158 71.21 93.7803 73.9455 93.7803 77.3199C93.7803 80.6944 96.5158 83.4299 99.8903 83.4299Z" fill="#ADE0F3"/>
<path d="M99.8903 102.28C103.265 102.28 106 99.5444 106 96.1699C106 92.7955 103.265 90.0599 99.8903 90.0599C96.5158 90.0599 93.7803 92.7955 93.7803 96.1699C93.7803 99.5444 96.5158 102.28 99.8903 102.28Z" fill="#ADE0F3"/>
<path d="M99.8903 120.2C103.265 120.2 106 117.464 106 114.09C106 110.716 103.265 107.98 99.8903 107.98C96.5158 107.98 93.7803 110.716 93.7803 114.09C93.7803 117.464 96.5158 120.2 99.8903 120.2Z" fill="#ADE0F3"/>
<path d="M99.8903 138.11C103.265 138.11 106 135.374 106 132C106 128.625 103.265 125.89 99.8903 125.89C96.5158 125.89 93.7803 128.625 93.7803 132C93.7803 135.374 96.5158 138.11 99.8903 138.11Z" fill="#ADE0F3"/>
</svg>
