<svg width="131" height="145" viewBox="0 0 131 145" fill="none" xmlns="http://www.w3.org/2000/svg">
<path d="M90.54 106.07L81.31 125.68C79.28 129.99 79.1901 135.07 81.4601 139.26C83.0701 142.22 85.82 144.76 90.54 144.76C95.26 144.76 98.01 142.22 99.62 139.26C101.89 135.07 101.8 129.99 99.7701 125.68L90.54 106.07Z" fill="#ADE0F3"/>
<path d="M101.21 37.75C101.2 37.75 101.18 37.75 101.17 37.75C101.18 37.5 101.21 37.25 101.21 37C101.21 16.98 84.98 0.75 64.96 0.75C44.94 0.75 28.71 16.98 28.71 37C28.71 37.02 28.71 37.05 28.71 37.07C13 37.8 0.47998 50.73 0.47998 66.61C0.47998 82.97 13.74 96.22 30.09 96.22H101.21C117.36 96.22 130.45 83.13 130.45 66.98C130.45 50.84 117.35 37.75 101.21 37.75Z" fill="#42BFEC"/>
<path d="M90.5399 87.36H54.5099L72.7799 54.88H54.5099L28.6299 101.5H56.5399L45.3699 143.69L90.5399 87.36Z" fill="#FAAF40"/>
</svg>
