<svg width="196" height="126" viewBox="0 0 196 126" fill="none" xmlns="http://www.w3.org/2000/svg">
<path d="M101.21 37.7C101.2 37.7 101.18 37.7 101.17 37.7C101.18 37.45 101.21 37.2 101.21 36.95C101.21 16.93 84.98 0.699951 64.96 0.699951C44.94 0.699951 28.71 16.93 28.71 36.95C28.71 36.97 28.71 37 28.71 37.02C13 37.75 0.47998 50.6799 0.47998 66.5599C0.47998 82.9099 13.74 96.1699 30.09 96.1699H101.21C117.36 96.1699 130.45 83.0799 130.45 66.9299C130.45 50.7899 117.35 37.7 101.21 37.7Z" fill="#42BFEC"/>
<path d="M177.55 65.73H119C116.23 65.73 113.98 63.48 113.98 60.71C113.98 57.94 116.23 55.69 119 55.69H177.55C181.74 55.69 185.14 52.28 185.14 48.1C185.14 43.91 181.73 40.51 177.55 40.51H170.11C167.34 40.51 165.09 38.26 165.09 35.49C165.09 32.72 167.34 30.47 170.11 30.47H177.55C187.28 30.47 195.19 38.38 195.19 48.11C195.19 57.82 187.28 65.73 177.55 65.73Z" fill="#ADE0F3"/>
<path d="M158.47 125.9C146.07 125.9 135.98 115.81 135.98 103.41C135.98 94.93 142.88 88.04 151.35 88.04C159.83 88.04 166.72 94.94 166.72 103.41V106C166.72 108.77 164.47 111.02 161.7 111.02C158.93 111.02 156.68 108.77 156.68 106V103.41C156.68 100.47 154.29 98.08 151.35 98.08C148.41 98.08 146.02 100.47 146.02 103.41C146.02 110.27 151.6 115.85 158.47 115.85C165.33 115.85 170.91 110.27 170.91 103.41V98.27C170.91 88.89 163.28 81.26 153.9 81.26H75.0103C72.2403 81.26 69.9902 79.01 69.9902 76.24C69.9902 73.47 72.2403 71.22 75.0103 71.22H153.9C168.82 71.22 180.96 83.36 180.96 98.27V103.41C180.96 115.81 170.87 125.9 158.47 125.9Z" fill="#ADE0F3"/>
</svg>
